<?xml version="1.0" encoding="UTF-8" standalone="no"?>
<svg width="60px" height="60px" viewBox="0 0 60 60" version="1.1" xmlns="http://www.w3.org/2000/svg" xmlns:xlink="http://www.w3.org/1999/xlink" xmlns:sketch="http://www.bohemiancoding.com/sketch/ns">
    <!-- Generator: Sketch 3.2.2 (9983) - http://www.bohemiancoding.com/sketch -->
    <title>Skewer</title>
    <desc>Created with Sketch.</desc>
    <defs></defs>
    <g id="stroked" stroke="none" stroke-width="1" fill="none" fill-rule="evenodd" sketch:type="MSPage">
        <g id="Kitchen" sketch:type="MSLayerGroup" transform="translate(-7.000000, -1198.000000)" stroke="#535353" stroke-width="2" stroke-linejoin="round">
            <g id="Skewer" transform="translate(37.000000, 1228.000000) rotate(-315.000000) translate(-37.000000, -1228.000000) translate(29.000000, 1194.000000)" sketch:type="MSShapeGroup">
                <circle id="Oval-744" stroke-linecap="round" cx="8" cy="57" r="5"></circle>
                <circle id="Oval-744" stroke-linecap="round" cx="8" cy="38" r="5"></circle>
                <rect id="Rectangle-784" stroke-linecap="round" x="0" y="26" width="16" height="5"></rect>
                <rect id="Rectangle-784" stroke-linecap="round" x="0" y="17" width="16" height="5" rx="14"></rect>
                <path d="M3,49 L13,49" id="Line" stroke-linecap="round"></path>
                <path d="M3,46 L13,46" id="Line" stroke-linecap="round"></path>
                <path d="M3,24 L13,24" id="Line" stroke-linecap="round"></path>
                <path d="M8,63 L8,68" id="Line" stroke-linecap="square"></path>
                <path d="M8,17 L8,10" id="Line" stroke-linecap="square"></path>
                <path d="M8,10 C10.7614237,10 13,7.76142375 13,5 C13,2.23857625 10.7614237,0 8,0" id="Oval-746" stroke-linecap="round"></path>
            </g>
        </g>
    </g>
</svg>