<?xml version="1.0" encoding="UTF-8" standalone="no"?>
<svg width="60px" height="60px" viewBox="0 0 60 60" version="1.1" xmlns="http://www.w3.org/2000/svg" xmlns:xlink="http://www.w3.org/1999/xlink" xmlns:sketch="http://www.bohemiancoding.com/sketch/ns">
    <!-- Generator: Sketch 3.2.2 (9983) - http://www.bohemiancoding.com/sketch -->
    <title>Wurst</title>
    <desc>Created with Sketch.</desc>
    <defs></defs>
    <g id="stroked" stroke="none" stroke-width="1" fill="none" fill-rule="evenodd" sketch:type="MSPage">
        <g id="Kitchen" sketch:type="MSLayerGroup" transform="translate(-127.000000, -1198.000000)" stroke="#535353" stroke-width="2" stroke-linecap="round" stroke-linejoin="round">
            <g id="Wurst" transform="translate(129.000000, 1202.000000)" sketch:type="MSShapeGroup">
                <path d="M3,38 C3,34.1340068 6.09754036,31.453831 9.94556964,31.91221 C9.94556964,31.91221 14.5901833,33.0000001 30.5,33 C46.4098167,32.9999999 51.0816537,31.9092906 51.0816537,31.9092906 C54.9025508,31.4071033 58,34.1418733 58,38 L58,38 C58,41.8659932 54.8866204,45.3951356 51.0554985,45.8192472 C51.0554985,45.8192472 43.8027153,46.9999998 30.5,47 C17.1972847,47.0000002 9.94450146,45.8192473 9.94450146,45.8192473 C6.10915921,45.3667895 3,41.8581267 3,38 L3,38 Z" id="Rectangle-786" transform="translate(30.500000, 39.424916) rotate(-15.000000) translate(-30.500000, -39.424916) "></path>
                <path d="M0.981356055,28.0658096 C1.38562611,24.6480302 4.3094873,22.372283 7.87920326,22.7975092 C7.87920326,22.7975092 12.5238169,23.8852993 28.4336336,23.8852993 C44.3434504,23.8852992 49.0152873,22.7945899 49.0152873,22.7945899 C52.8361845,22.2924025 55.9336336,25.0271725 55.9336336,28.8852993 C55.9336336,32.7512925 52.8267366,36.2740234 48.98536,36.7308994" id="Rectangle-786" transform="translate(28.457495, 29.733015) rotate(-28.000000) translate(-28.457495, -29.733015) "></path>
                <path d="M20.7633413,9 C20.7633413,9 15.9040421,10.4632469 19.0730777,14.5589657 C22.2421132,18.6546845 18.719664,20.0940917 18.719664,20.0940917" id="Path-1349"></path>
                <path d="M26,0.549690639 C26,0.549690639 21.1407008,2.01293753 24.3097364,6.10865632 C27.4787719,10.2043751 23.9563227,11.6437824 23.9563227,11.6437824" id="Path-1349"></path>
            </g>
        </g>
    </g>
</svg>