<?xml version="1.0" encoding="UTF-8" standalone="no"?>
<svg width="60px" height="60px" viewBox="0 0 60 60" version="1.1" xmlns="http://www.w3.org/2000/svg" xmlns:xlink="http://www.w3.org/1999/xlink" xmlns:sketch="http://www.bohemiancoding.com/sketch/ns">
    <!-- Generator: Sketch 3.2.2 (9983) - http://www.bohemiancoding.com/sketch -->
    <title>Toast</title>
    <desc>Created with Sketch.</desc>
    <defs></defs>
    <g id="stroked" stroke="none" stroke-width="1" fill="none" fill-rule="evenodd" sketch:type="MSPage">
        <g id="Kitchen" sketch:type="MSLayerGroup" transform="translate(-487.000000, -838.000000)" stroke="#535353" stroke-width="2" stroke-linejoin="round">
            <g id="Toast" transform="translate(488.000000, 846.000000)" sketch:type="MSShapeGroup">
                <g id="Rectangle-756-+-Line-+-Line" transform="translate(14.316987, 25.683013) rotate(-330.000000) translate(-14.316987, -25.683013) translate(6.816987, 10.683013)">
                    <rect id="Rectangle-756" stroke-linecap="round" x="0.133974596" y="0.5" width="14" height="19"></rect>
                    <path d="M7.1339746,18.5 L7.1339746,28.1900082" id="Line" stroke-linecap="square"></path>
                    <path d="M3.1339746,28.5 L11.1339746,28.5" id="Line" stroke-linecap="square"></path>
                </g>
                <g id="Rectangle-756-+-Line-+-Line-2" transform="translate(44.816987, 25.316987) scale(-1, 1) rotate(-330.000000) translate(-44.816987, -25.316987) translate(37.316987, 10.316987)">
                    <rect id="Rectangle-756" stroke-linecap="round" x="0.866025404" y="0.5" width="14" height="19"></rect>
                    <path d="M7.8660254,18.5 L7.8660254,28.1900082" id="Line" stroke-linecap="square"></path>
                    <path d="M3.8660254,28.5 L11.8660254,28.5" id="Line" stroke-linecap="square"></path>
                </g>
                <g id="Line-+-Line-+-Line" transform="translate(22.000000, 29.000000)" stroke-linecap="square">
                    <path d="M3,0 L0,4" id="Line"></path>
                    <path d="M7,2 L7,7" id="Line"></path>
                    <path d="M14,0 L11,4" id="Line" transform="translate(12.500000, 2.000000) scale(-1, 1) translate(-12.500000, -2.000000) "></path>
                </g>
                <g id="Line-+-Line-+-Line" transform="translate(29.060017, 4.377300) rotate(-180.000000) translate(-29.060017, -4.377300) translate(22.060017, 0.877300)" stroke-linecap="square">
                    <path d="M3,0 L0,4" id="Line"></path>
                    <path d="M7,2 L7,7" id="Line"></path>
                    <path d="M14,0 L11,4" id="Line" transform="translate(12.500000, 2.000000) scale(-1, 1) translate(-12.500000, -2.000000) "></path>
                </g>
            </g>
        </g>
    </g>
</svg>