<?xml version="1.0" encoding="UTF-8" standalone="no"?>
<svg width="60px" height="60px" viewBox="0 0 60 60" version="1.1" xmlns="http://www.w3.org/2000/svg" xmlns:xlink="http://www.w3.org/1999/xlink" xmlns:sketch="http://www.bohemiancoding.com/sketch/ns">
    <!-- Generator: Sketch 3.2.2 (9983) - http://www.bohemiancoding.com/sketch -->
    <title>Cheesee</title>
    <desc>Created with Sketch.</desc>
    <defs></defs>
    <g id="stroked" stroke="none" stroke-width="1" fill="none" fill-rule="evenodd" sketch:type="MSPage">
        <g id="Kitchen" sketch:type="MSLayerGroup" transform="translate(-7.000000, -1078.000000)" stroke="#535353" stroke-width="2" stroke-linecap="round" stroke-linejoin="round">
            <g id="Cheesee" transform="translate(9.000000, 1083.000000)" sketch:type="MSShapeGroup">
                <path d="M2.13547345,14.569711 C2.13547345,14.569711 0.497797738,20.9077378 0.612655729,25.9627457 C0.727513721,31.0177535 2.61616907,35.7255755 2.61616907,35.7255755 C2.61616907,35.7255755 6.25625711,40.72812 9.33059301,42.2690589 C13.0891111,44.1529281 23.1147311,46 23.1147311,46 L56,20.3737586 L55.3896323,1 L2.13547345,14.569711 Z" id="Path-1653"></path>
                <path d="M2.57118861,15.5344082 C2.57118861,15.5344082 10.9782771,19.4591909 15.5263042,20.8277193 C20.0743313,22.1962477 24.9873985,21.3382404 24.9873985,21.3382404 L55.1026684,1.08295362" id="Path-1654"></path>
                <path d="M25,21.6037935 C25,21.6037935 22.5816898,28.8036848 22.2869166,32.5101387 C21.9469402,36.7849731 23.0957511,45.5476584 23.0957511,45.5476584" id="Path-1655"></path>
                <ellipse id="Oval-729" transform="translate(47.500000, 15.000000) rotate(23.000000) translate(-47.500000, -15.000000) " cx="47.5" cy="15" rx="2.5" ry="4"></ellipse>
                <ellipse id="Oval-730" cx="40" cy="25" rx="2" ry="3"></ellipse>
                <path d="M28.1160991,18.5550957 C28.1160991,20.21195 29.6199069,22.1033234 30.7244764,22.1033234 C31.8290459,22.1033234 33.222769,19.6285861 33.222769,17.9717318 L28.1160991,18.5550957 Z" id="Oval-730" transform="translate(30.669434, 20.037528) rotate(-30.000000) translate(-30.669434, -20.037528) "></path>
                <path d="M34.3826101,38.4716599 C34.3826101,34.6056667 32.8156068,31.4716599 30.8826101,31.4716599 C28.9496135,31.4716599 27.5210462,35.2911492 27.5210462,39.1571424 L34.3826101,38.4716599 Z" id="Oval-731" transform="translate(30.951828, 35.314401) rotate(-33.000000) translate(-30.951828, -35.314401) "></path>
            </g>
        </g>
    </g>
</svg>