<?xml version="1.0" encoding="UTF-8" standalone="no"?>
<svg width="60px" height="60px" viewBox="0 0 60 60" version="1.1" xmlns="http://www.w3.org/2000/svg" xmlns:xlink="http://www.w3.org/1999/xlink" xmlns:sketch="http://www.bohemiancoding.com/sketch/ns">
    <!-- Generator: Sketch 3.2.2 (9983) - http://www.bohemiancoding.com/sketch -->
    <title>Salad</title>
    <desc>Created with Sketch.</desc>
    <defs></defs>
    <g id="stroked" stroke="none" stroke-width="1" fill="none" fill-rule="evenodd" sketch:type="MSPage">
        <g id="Kitchen" sketch:type="MSLayerGroup" transform="translate(-727.000000, -1078.000000)" stroke="#535353" stroke-width="2" stroke-linejoin="round">
            <g id="Salad" transform="translate(727.000000, 1080.000000)" sketch:type="MSShapeGroup">
                <path d="M6,38 L54,38 L49,55 L10,55 L6,38 Z" id="Rectangle-781" stroke-linecap="round"></path>
                <path d="M9.22159204,34.2911076 C9.08414708,33.7870343 9.01077794,33.2565315 9.01077794,32.7088924 C9.01077794,29.395184 11.6970694,26.7088924 15.0107779,26.7088924 C15.5873502,26.7088924 16.1449277,26.7902189 16.6726648,26.9420265 C18.2106584,22.7220758 22.2588349,19.7088924 27.0107779,19.7088924 C30.9680275,19.7088924 34.4372171,21.7985252 36.3751064,24.9345504 L36.3751064,24.9345504 C36.8950813,24.7875504 37.4437439,24.7088924 38.0107779,24.7088924 C41.3244864,24.7088924 44.0107779,27.395184 44.0107779,30.7088924 C44.0107779,30.8848507 44.0032036,31.0590398 43.9883632,31.2311516 C43.99585,31.235418 44.0033216,31.2397079 44.0107779,31.2440212 L44.0107779,31.2440212 C44.5991247,30.903681 45.2822037,30.7088924 46.0107779,30.7088924 C48.0788301,30.7088924 49.7803249,32.2783109 49.9892221,34.2911076" id="Oval-738" stroke-linecap="round"></path>
                <circle id="Oval-738" stroke-linecap="round" cx="21" cy="31" r="3"></circle>
                <circle id="Oval-738" stroke-linecap="round" cx="36" cy="30" r="2"></circle>
                <path d="M49,23.7453107 C50.8134841,22.4803646 52,20.3787451 52,18 C52,15.6212549 50.8134841,13.5196354 49,12.2546893 C47.1865159,13.5196354 46,15.6212549 46,18 C46,20.3787451 47.1865159,22.4803646 49,23.7453107 Z" id="Oval-740" stroke-linecap="round" transform="translate(49.000000, 18.000000) rotate(-315.000000) translate(-49.000000, -18.000000) "></path>
                <path d="M39.4819055,22.024828 C40.7601498,21.1332236 41.5964721,19.6518855 41.5964721,17.9752137 C41.5964721,16.298542 40.7601498,14.8172038 39.4819055,13.9255995 C38.2036611,14.8172038 37.3673388,16.298542 37.3673388,17.9752137 C37.3673388,19.6518855 38.2036611,21.1332236 39.4819055,22.024828 Z" id="Oval-740" stroke-linecap="round" transform="translate(39.481905, 17.975214) rotate(-30.000000) translate(-39.481905, -17.975214) "></path>
                <path d="M1.27627944,5.76313972 C1.27627944,11.838272 6.20114719,16.7631397 12.2762794,16.7631397 C18.3514117,16.7631397 23.2762794,11.838272 23.2762794,5.76313972 L1.27627944,5.76313972 Z" id="Oval-744" stroke-linecap="round" transform="translate(12.276279, 11.263140) rotate(-330.000000) translate(-12.276279, -11.263140) "></path>
                <path d="M14.2220492,6.42053479 L4.68136795,9.66861494" id="Path-1690" stroke-linecap="round"></path>
                <path d="M15,7 L13,17" id="Line" stroke-linecap="square"></path>
            </g>
        </g>
    </g>
</svg>